<svg width="372" height="330" viewBox="0 0 372 330" fill="none" xmlns="http://www.w3.org/2000/svg">
<g clip-path="url(#clip0_5394_32019)">
<path d="M103.967 -4.09564C104.622 -4.51339 105.444 -3.89027 105.218 -3.14649L104.866 -1.98633C104.157 0.352109 104.504 2.88378 105.818 4.94452L106.469 5.9669C106.887 6.62236 106.264 7.44378 105.52 7.21813L104.36 6.86616C102.021 6.15672 99.4898 6.50427 97.4291 7.81765L96.4067 8.46925C95.7512 8.887 94.9298 8.26388 95.1555 7.5201L95.5074 6.35994C96.2169 4.0215 95.8693 1.48983 94.556 -0.570905L93.9044 -1.59329C93.4866 -2.24875 94.1097 -3.07017 94.8535 -2.84452L96.0137 -2.49255C98.3521 -1.7831 100.884 -2.13066 102.945 -3.44404L103.967 -4.09564Z" fill="#3F76FF"/>
<path d="M346.111 9.13459C346.382 8.40135 347.419 8.40135 347.69 9.13459C348.543 11.4399 350.361 13.2575 352.666 14.1105C353.399 14.3818 353.399 15.4189 352.666 15.6902C350.361 16.5433 348.543 18.3609 347.69 20.6662C347.419 21.3994 346.382 21.3994 346.111 20.6662C345.257 18.3609 343.44 16.5433 341.135 15.6902C340.401 15.4189 340.401 14.3818 341.135 14.1105C343.44 13.2575 345.257 11.4399 346.111 9.13459Z" fill="#3F76FF"/>
<path d="M154.512 34.1794C154.703 34.0539 154.945 34.2425 154.879 34.4658L154.375 36.1748C154.168 36.8751 154.271 37.6353 154.655 38.256L155.588 39.7618C155.71 39.9587 155.529 40.2036 155.312 40.1359L153.651 39.6174C152.967 39.4038 152.227 39.5071 151.627 39.9004L150.164 40.8603C149.972 40.9857 149.731 40.7972 149.797 40.5739L150.3 38.8649C150.507 38.1646 150.405 37.4044 150.02 36.7837L149.087 35.2778C148.965 35.0809 149.146 34.836 149.363 34.9038L151.024 35.4222C151.709 35.6359 152.448 35.5325 153.048 35.1392L154.512 34.1794Z" fill="#3F76FF"/>
</g>
<path d="M340.913 305.939C341.002 305.469 341.629 305.363 341.859 305.78L343.622 308.973C344.339 310.271 345.588 311.186 347.042 311.477L350.544 312.179C351.002 312.271 351.1 312.883 350.694 313.12L347.592 314.933C346.303 315.685 345.403 316.962 345.125 318.428L344.443 322.032C344.354 322.503 343.727 322.608 343.497 322.191L341.734 318.998C341.017 317.7 339.768 316.785 338.314 316.494L334.812 315.792C334.354 315.701 334.257 315.088 334.662 314.851L337.765 313.039C339.053 312.286 339.954 311.009 340.231 309.543L340.913 305.939Z" fill="#3F76FF"/>
<path d="M321.557 175.895C321.895 175.745 322.231 176.108 322.069 176.448L320.832 179.045C320.323 180.113 320.293 181.356 320.749 182.448L321.861 185.105C322.006 185.452 321.652 185.798 321.322 185.632L318.797 184.359C317.76 183.836 316.552 183.806 315.49 184.276L312.907 185.42C312.569 185.569 312.234 185.206 312.395 184.867L313.633 182.269C314.141 181.201 314.172 179.958 313.715 178.866L312.604 176.209C312.458 175.862 312.812 175.516 313.142 175.682L315.667 176.955C316.704 177.478 317.912 177.508 318.974 177.038L321.557 175.895Z" fill="#3F76FF"/>
<path d="M240.537 168.179C240.729 168.054 240.97 168.242 240.904 168.466L240.4 170.175C240.194 170.875 240.296 171.635 240.681 172.256L241.614 173.762C241.736 173.959 241.555 174.204 241.338 174.136L239.677 173.617C238.992 173.404 238.253 173.507 237.653 173.9L236.189 174.86C235.998 174.986 235.756 174.797 235.822 174.574L236.326 172.865C236.533 172.165 236.43 171.404 236.046 170.784L235.113 169.278C234.991 169.081 235.172 168.836 235.389 168.904L237.05 169.422C237.734 169.636 238.474 169.533 239.073 169.139L240.537 168.179Z" fill="#3F76FF"/>
<path d="M351.051 81.8813C351.243 81.7558 351.484 81.9444 351.419 82.1677L351.386 82.2771C351.18 82.9773 351.282 83.7376 351.667 84.3583L351.726 84.4544C351.848 84.6513 351.668 84.8962 351.451 84.8284L351.344 84.7953C350.66 84.5817 349.921 84.685 349.321 85.0783L349.227 85.1398C349.036 85.2652 348.794 85.0767 348.86 84.8533L348.892 84.744C349.099 84.0437 348.996 83.2835 348.612 82.6628L348.552 82.5666C348.43 82.3697 348.611 82.1248 348.828 82.1926L348.934 82.2257C349.619 82.4394 350.358 82.336 350.958 81.9427L351.051 81.8813Z" fill="#3F76FF"/>
<path opacity="0.7" d="M27.6593 51.1794C27.8506 51.0539 28.0922 51.2425 28.0263 51.4658L27.5224 53.1748C27.3158 53.8751 27.4183 54.6353 27.8028 55.256L28.7357 56.7618C28.8577 56.9587 28.6771 57.2036 28.4599 57.1359L26.799 56.6174C26.1143 56.4038 25.3751 56.5071 24.7752 56.9004L23.3112 57.8603C23.1199 57.9857 22.8783 57.7972 22.9442 57.5739L23.4482 55.8649C23.6547 55.1646 23.5523 54.4044 23.1677 53.7837L22.2348 52.2778C22.1128 52.0809 22.2934 51.836 22.5106 51.9038L24.1716 52.4222C24.8563 52.6359 25.5955 52.5325 26.1954 52.1392L27.6593 51.1794Z" fill="#3F76FF"/>
<path d="M90.1081 114.156C90.2466 114.541 90.7911 114.541 90.9296 114.156L91.0601 113.793C91.4912 112.594 92.4244 111.644 93.6149 111.191L93.9659 111.057C94.3409 110.914 94.3409 110.384 93.9659 110.241L93.6149 110.107C92.4244 109.654 91.4912 108.704 91.0601 107.505L90.9296 107.142C90.7911 106.757 90.2466 106.757 90.1081 107.142L89.9776 107.505C89.5464 108.704 88.6133 109.654 87.4228 110.107L87.0718 110.241C86.6968 110.384 86.6968 110.914 87.0718 111.057L87.4228 111.191C88.6133 111.644 89.5464 112.594 89.9776 113.793L90.1081 114.156Z" fill="#3F76FF"/>
<path d="M23.3309 324.465C23.8704 324.967 24.7402 324.501 24.6486 323.758L24.5625 323.059C24.2761 320.738 25.0009 318.391 26.5466 316.634L27.0051 316.113C27.494 315.558 27.0544 314.691 26.3317 314.785L25.6541 314.873C23.3694 315.172 21.0841 314.439 19.3977 312.869L18.8901 312.396C18.3507 311.893 17.4808 312.36 17.5724 313.103L17.6586 313.801C17.9449 316.123 17.2201 318.47 15.6744 320.226L15.216 320.747C14.7271 321.303 15.1666 322.17 15.8893 322.076L16.5669 321.987C18.8517 321.689 21.1369 322.421 22.8233 323.992L23.3309 324.465Z" fill="#3F76FF"/>
<path d="M9.19045 170.179C9.38176 170.054 9.62334 170.242 9.55748 170.466L9.05349 172.175C8.84697 172.875 8.94943 173.635 9.33397 174.256L10.2669 175.762C10.3888 175.959 10.2083 176.204 9.99106 176.136L8.33008 175.617C7.64542 175.404 6.90618 175.507 6.30631 175.9L4.84236 176.86C4.65106 176.986 4.40948 176.797 4.47534 176.574L4.97933 174.865C5.18584 174.165 5.08339 173.404 4.69885 172.784L3.76596 171.278C3.64398 171.081 3.82456 170.836 4.04176 170.904L5.70273 171.422C6.3874 171.636 7.12663 171.533 7.72651 171.139L9.19045 170.179Z" fill="#3F76FF"/>
<defs>
<clipPath id="clip0_5394_32019">
<rect width="364.517" height="44" fill="white" transform="translate(7.48315)"/>
</clipPath>
</defs>
</svg>
