<svg width="253" height="253" viewBox="0 0 253 253" fill="none" xmlns="http://www.w3.org/2000/svg">
<g clip-path="url(#clip0_5394_4527)">
<rect width="253" height="253" rx="126.5" fill="#3F76FF"/>
<path d="M206.783 -24H245L175.181 130H62L206.783 -24Z" fill="url(#paint0_linear_5394_4527)"/>
<ellipse cx="142.17" cy="216.007" rx="9.83521" ry="10.2559" fill="#F6F9FF"/>
<path d="M146.123 222.917C157.791 224.073 166.724 207.831 169.732 199.566C162.792 198.197 147.387 198.137 141.293 208.851C135.199 219.564 141.974 222.692 146.123 222.917Z" fill="#E7E7FF"/>
<path d="M120.041 188.862C132.803 186.172 160.669 178.338 170.263 168.928C167.545 181.948 125.789 194.844 120.041 188.862Z" fill="#FFC100"/>
<ellipse cx="63.3755" cy="111.058" rx="13.4537" ry="16.1439" transform="rotate(-22.3491 63.3755 111.058)" fill="white"/>
<ellipse cx="60.4986" cy="108.272" rx="5.0349" ry="6.04164" transform="rotate(-22.3491 60.4986 108.272)" fill="#FFF1C6"/>
<path d="M149.234 90.6652C150.421 99.5018 157.172 105.888 164.313 104.928C166.302 104.661 176.28 96.0282 175.093 87.1915C173.906 78.3549 167.155 71.969 160.014 72.9282C152.874 73.8874 148.047 81.8285 149.234 90.6652Z" fill="#E5EDFF"/>
<ellipse cx="5.0349" cy="6.04165" rx="5.0349" ry="6.04165" transform="matrix(-0.991098 0.133137 0.133137 0.991098 167.852 78.3647)" fill="#E9DEBD"/>
<g filter="url(#filter0_i_5394_4527)">
<path fill-rule="evenodd" clip-rule="evenodd" d="M103.369 77.462C109.021 73.7985 116.648 67.8221 122.693 60.0544C124.185 58.6357 127.61 56.8711 129.372 61.1621C130.867 64.8019 130.389 69.5578 128.428 74.1823C162.874 75.1283 182.878 100.819 189.483 125.469C197.51 155.428 169.66 176.001 133.218 185.765C96.7761 195.53 61.6282 190.137 53.6006 160.178C45.6191 130.391 58.6102 88.5576 103.369 77.462Z" fill="white"/>
</g>
<path d="M142.307 133.765L142.26 133.596L142.095 133.654L99.8452 148.415L99.6944 148.467L99.7429 148.62C102.109 156.04 106.711 161.16 112.589 163.722C118.465 166.282 125.596 166.277 133.008 163.484C139.382 161.083 142.305 155.771 143.334 150.013C144.362 144.26 143.506 138.041 142.307 133.765Z" fill="#F44D3D" stroke="#CDDEFF" stroke-width="0.32842"/>
<path fill-rule="evenodd" clip-rule="evenodd" d="M142.17 153.53C138.665 152.536 133.414 152.73 127.864 154.308C120.387 156.433 114.694 160.408 113.537 163.966C119.174 166.103 125.888 165.959 132.864 163.331C137.833 161.458 140.685 157.799 142.17 153.53Z" fill="#FC6D5C"/>
<path d="M130.884 137.741L108.775 145.323C110.829 146.314 116.536 147.643 122.94 145.039C129.345 142.435 130.999 139.139 130.884 137.741Z" fill="white"/>
<circle cx="90.506" cy="129.3" r="14.3758" transform="rotate(-18.9775 90.506 129.3)" fill="#1D1D1D"/>
<circle cx="133.251" cy="114.143" r="14.3758" transform="rotate(-18.9775 133.251 114.143)" fill="#1D1D1D"/>
<circle cx="92.8391" cy="133.809" r="8.92043" fill="#3E3E3E"/>
<circle cx="134.708" cy="117.016" r="8.92043" fill="#3E3E3E"/>
<ellipse cx="140.617" cy="125.936" rx="16.0424" ry="5.76728" transform="rotate(-24.0519 140.617 125.936)" fill="white"/>
<ellipse cx="95.3875" cy="143.425" rx="16.0424" ry="5.76728" transform="rotate(-20.4688 95.3875 143.425)" fill="white"/>
<circle cx="94.6596" cy="115.747" r="2.46999" fill="white"/>
<circle cx="136.128" cy="99.916" r="2.87692" fill="white"/>
<rect x="79.2352" y="110.235" width="10.0916" height="37.5499" transform="rotate(5.18885 79.2352 110.235)" fill="#B8D4FF" fill-opacity="0.3"/>
<rect x="143.813" y="92.894" width="6.76681" height="36.6546" transform="rotate(5.18885 143.813 92.894)" fill="#B8D4FF" fill-opacity="0.3"/>
<g filter="url(#filter1_i_5394_4527)">
<line x1="105.737" y1="121.261" x2="116.861" y2="116.386" stroke="#1D48B5" stroke-width="3.94104"/>
</g>
<g filter="url(#filter2_di_5394_4527)">
<circle cx="136.958" cy="110.051" r="20.4757" transform="rotate(-28.3952 136.958 110.051)" stroke="#1A44AE" stroke-width="3.94104" shape-rendering="crispEdges"/>
</g>
<g filter="url(#filter3_di_5394_4527)">
<circle cx="87.3515" cy="129.384" r="19.8544" transform="rotate(-28.3952 87.3515 129.384)" stroke="#1A44AE" stroke-width="3.94104" shape-rendering="crispEdges"/>
</g>
<path d="M164.978 174.394C154.938 183.601 128.033 189.601 118.331 190.448C118.67 199.896 122.856 222.858 154.47 212.948C179.409 205.131 169.904 182.843 164.978 174.394Z" fill="#5BCBFB"/>
<path d="M152.906 185.233L154.333 180.888C146.486 184.489 133.914 187.638 129.097 188.702L132.293 190.506C132.815 190.801 133.429 190.891 134.013 190.757L151.158 186.828C151.98 186.639 152.643 186.034 152.906 185.233Z" fill="white"/>
<path d="M74.5778 182.626C87.0819 178.813 102.104 187.381 112.945 188.906L116.349 203.733C105.426 205.963 101.772 209.074 82.6742 206.691C60.3345 203.903 68.7571 184.401 74.5778 182.626Z" fill="url(#paint1_linear_5394_4527)"/>
<path d="M77.0423 206.8C76.6071 205.553 80.7815 182.369 81.63 181.162C82.3872 180.291 84.1213 180.734 84.3228 181.754C85.6023 188.231 81.63 206.325 80.423 207.264C79.1333 208.267 77.3893 207.487 77.0423 206.8Z" fill="#FFC100"/>
<ellipse cx="117.155" cy="201.153" rx="19.2908" ry="25.5112" transform="rotate(-22.1969 117.155 201.153)" fill="white"/>
<ellipse cx="118.411" cy="202.976" rx="13.3497" ry="17.6543" transform="rotate(-22.1969 118.411 202.976)" fill="#D7E5FF"/>
<path d="M160.171 178.102L160.558 151.522L192.855 155.607L170.504 181.477C166.852 184.34 160.412 181.435 160.171 178.102Z" fill="url(#paint2_linear_5394_4527)"/>
<circle cx="180.449" cy="148.576" r="21.2965" transform="rotate(-10.8 180.449 148.576)" fill="#FFC100"/>
<g filter="url(#filter4_i_5394_4527)">
<g clip-path="url(#clip1_5394_4527)">
<circle cx="180.869" cy="143.51" r="24.0205" transform="rotate(-10.8 180.869 143.51)" fill="white"/>
</g>
</g>
<ellipse cx="132.982" cy="238.464" rx="17.5" ry="3.5" fill="black" fill-opacity="0.3"/>
<path d="M68.5655 49.4543C68.8925 48.5954 70.1075 48.5954 70.4345 49.4543L73.6149 57.8064C73.7164 58.073 73.927 58.2836 74.1936 58.3851L82.5457 61.5655C83.4046 61.8925 83.4046 63.1075 82.5457 63.4345L74.1936 66.6149C73.927 66.7164 73.7164 66.927 73.6149 67.1936L70.4345 75.5457C70.1075 76.4046 68.8925 76.4046 68.5655 75.5457L65.3851 67.1936C65.2836 66.927 65.073 66.7164 64.8064 66.6149L56.4543 63.4345C55.5954 63.1075 55.5954 61.8925 56.4543 61.5655L64.8064 58.3851C65.073 58.2836 65.2836 58.073 65.3851 57.8064L68.5655 49.4543Z" fill="white"/>
<path d="M98.5995 23.0518C98.7396 22.6838 99.2604 22.6838 99.4005 23.0518L100.586 26.1658C100.63 26.28 100.72 26.3703 100.834 26.4138L103.948 27.5995C104.316 27.7396 104.316 28.2604 103.948 28.4005L100.834 29.5862C100.72 29.6297 100.63 29.72 100.586 29.8342L99.4005 32.9482C99.2604 33.3162 98.7396 33.3162 98.5995 32.9482L97.4138 29.8342C97.3703 29.72 97.28 29.6297 97.1658 29.5862L94.0518 28.4005C93.6838 28.2604 93.6838 27.7396 94.0518 27.5995L97.1658 26.4138C97.28 26.3703 97.3703 26.28 97.4138 26.1658L98.5995 23.0518Z" fill="white"/>
<path d="M144.12 63.7252C144.281 63.4188 144.719 63.4188 144.88 63.7252L145.931 65.7323C145.986 65.8373 146.082 65.9149 146.196 65.9465L148.509 66.587C148.927 66.703 148.927 67.297 148.509 67.413L146.196 68.0535C146.082 68.0851 145.986 68.1627 145.931 68.2677L144.88 70.2748C144.719 70.5812 144.281 70.5812 144.12 70.2748L143.069 68.2677C143.014 68.1627 142.918 68.0851 142.804 68.0535L140.491 67.413C140.073 67.297 140.073 66.703 140.491 66.587L142.804 65.9465C142.918 65.9149 143.014 65.8373 143.069 65.7323L144.12 63.7252Z" fill="white"/>
</g>
<defs>
<filter id="filter0_i_5394_4527" x="43.5098" y="50.5779" width="147.361" height="139.631" filterUnits="userSpaceOnUse" color-interpolation-filters="sRGB">
<feFlood flood-opacity="0" result="BackgroundImageFix"/>
<feBlend mode="normal" in="SourceGraphic" in2="BackgroundImageFix" result="shape"/>
<feColorMatrix in="SourceAlpha" type="matrix" values="0 0 0 0 0 0 0 0 0 0 0 0 0 0 0 0 0 0 127 0" result="hardAlpha"/>
<feOffset dx="-7.88209" dy="-7.88209"/>
<feGaussianBlur stdDeviation="6.56841"/>
<feComposite in2="hardAlpha" operator="arithmetic" k2="-1" k3="1"/>
<feColorMatrix type="matrix" values="0 0 0 0 0.803271 0 0 0 0 0.868847 0 0 0 0 1 0 0 0 1 0"/>
<feBlend mode="normal" in2="shape" result="effect1_innerShadow_5394_4527"/>
</filter>
<filter id="filter1_i_5394_4527" x="104.946" y="114.582" width="12.706" height="9.79806" filterUnits="userSpaceOnUse" color-interpolation-filters="sRGB">
<feFlood flood-opacity="0" result="BackgroundImageFix"/>
<feBlend mode="normal" in="SourceGraphic" in2="BackgroundImageFix" result="shape"/>
<feColorMatrix in="SourceAlpha" type="matrix" values="0 0 0 0 0 0 0 0 0 0 0 0 0 0 0 0 0 0 127 0" result="hardAlpha"/>
<feOffset dy="1.31368"/>
<feGaussianBlur stdDeviation="0.656841"/>
<feComposite in2="hardAlpha" operator="arithmetic" k2="-1" k3="1"/>
<feColorMatrix type="matrix" values="0 0 0 0 0.133333 0 0 0 0 0.309804 0 0 0 0 0.74902 0 0 0 1 0"/>
<feBlend mode="normal" in2="shape" result="effect1_innerShadow_5394_4527"/>
</filter>
<filter id="filter2_di_5394_4527" x="113.194" y="84.9732" width="55.4104" height="55.4108" filterUnits="userSpaceOnUse" color-interpolation-filters="sRGB">
<feFlood flood-opacity="0" result="BackgroundImageFix"/>
<feColorMatrix in="SourceAlpha" type="matrix" values="0 0 0 0 0 0 0 0 0 0 0 0 0 0 0 0 0 0 127 0" result="hardAlpha"/>
<feOffset dx="3.94104" dy="2.62736"/>
<feGaussianBlur stdDeviation="2.62736"/>
<feComposite in2="hardAlpha" operator="out"/>
<feColorMatrix type="matrix" values="0 0 0 0 0 0 0 0 0 0 0 0 0 0 0 0 0 0 0.15 0"/>
<feBlend mode="normal" in2="BackgroundImageFix" result="effect1_dropShadow_5394_4527"/>
<feBlend mode="normal" in="SourceGraphic" in2="effect1_dropShadow_5394_4527" result="shape"/>
<feColorMatrix in="SourceAlpha" type="matrix" values="0 0 0 0 0 0 0 0 0 0 0 0 0 0 0 0 0 0 127 0" result="hardAlpha"/>
<feOffset dy="2.62736"/>
<feGaussianBlur stdDeviation="1.31368"/>
<feComposite in2="hardAlpha" operator="arithmetic" k2="-1" k3="1"/>
<feColorMatrix type="matrix" values="0 0 0 0 0.244065 0 0 0 0 0.451742 0 0 0 0 0.975879 0 0 0 1 0"/>
<feBlend mode="normal" in2="shape" result="effect2_innerShadow_5394_4527"/>
</filter>
<filter id="filter3_di_5394_4527" x="64.2087" y="104.928" width="54.1677" height="54.1677" filterUnits="userSpaceOnUse" color-interpolation-filters="sRGB">
<feFlood flood-opacity="0" result="BackgroundImageFix"/>
<feColorMatrix in="SourceAlpha" type="matrix" values="0 0 0 0 0 0 0 0 0 0 0 0 0 0 0 0 0 0 127 0" result="hardAlpha"/>
<feOffset dx="3.94104" dy="2.62736"/>
<feGaussianBlur stdDeviation="2.62736"/>
<feComposite in2="hardAlpha" operator="out"/>
<feColorMatrix type="matrix" values="0 0 0 0 0 0 0 0 0 0 0 0 0 0 0 0 0 0 0.15 0"/>
<feBlend mode="normal" in2="BackgroundImageFix" result="effect1_dropShadow_5394_4527"/>
<feBlend mode="normal" in="SourceGraphic" in2="effect1_dropShadow_5394_4527" result="shape"/>
<feColorMatrix in="SourceAlpha" type="matrix" values="0 0 0 0 0 0 0 0 0 0 0 0 0 0 0 0 0 0 127 0" result="hardAlpha"/>
<feOffset dy="2.62736"/>
<feGaussianBlur stdDeviation="1.31368"/>
<feComposite in2="hardAlpha" operator="arithmetic" k2="-1" k3="1"/>
<feColorMatrix type="matrix" values="0 0 0 0 0.244065 0 0 0 0 0.451742 0 0 0 0 0.975879 0 0 0 1 0"/>
<feBlend mode="normal" in2="shape" result="effect2_innerShadow_5394_4527"/>
</filter>
<filter id="filter4_i_5394_4527" x="152.773" y="110.159" width="58.8194" height="61.4466" filterUnits="userSpaceOnUse" color-interpolation-filters="sRGB">
<feFlood flood-opacity="0" result="BackgroundImageFix"/>
<feBlend mode="normal" in="SourceGraphic" in2="BackgroundImageFix" result="shape"/>
<feColorMatrix in="SourceAlpha" type="matrix" values="0 0 0 0 0 0 0 0 0 0 0 0 0 0 0 0 0 0 127 0" result="hardAlpha"/>
<feOffset dx="2.62736" dy="-5.25472"/>
<feGaussianBlur stdDeviation="3.94104"/>
<feComposite in2="hardAlpha" operator="arithmetic" k2="-1" k3="1"/>
<feColorMatrix type="matrix" values="0 0 0 0 0.829948 0 0 0 0 0.888252 0 0 0 0 1 0 0 0 1 0"/>
<feBlend mode="normal" in2="shape" result="effect1_innerShadow_5394_4527"/>
</filter>
<linearGradient id="paint0_linear_5394_4527" x1="226.994" y1="-24" x2="135.636" y2="124.6" gradientUnits="userSpaceOnUse">
<stop stop-color="white" stop-opacity="0.1"/>
<stop offset="1" stop-color="white" stop-opacity="0"/>
</linearGradient>
<linearGradient id="paint1_linear_5394_4527" x1="89.4586" y1="187.845" x2="94.5688" y2="208.59" gradientUnits="userSpaceOnUse">
<stop stop-color="white"/>
<stop stop-color="white"/>
<stop offset="1" stop-color="#DBE7FF"/>
</linearGradient>
<linearGradient id="paint2_linear_5394_4527" x1="173.121" y1="149.125" x2="164.043" y2="181.965" gradientUnits="userSpaceOnUse">
<stop stop-color="#F3F7FF"/>
<stop offset="0.978213" stop-color="#D5E3FF"/>
</linearGradient>
<clipPath id="clip0_5394_4527">
<rect width="253" height="253" rx="126.5" fill="white"/>
</clipPath>
<clipPath id="clip1_5394_4527">
<rect x="152.773" y="124.416" width="48.0409" height="48.0409" rx="24.0205" transform="rotate(-10.8 152.773 124.416)" fill="white"/>
</clipPath>
</defs>
</svg>
