<svg width="255" height="255" viewBox="0 0 255 255" fill="none" xmlns="http://www.w3.org/2000/svg">
<g clip-path="url(#clip0_5394_32198)">
<rect width="255" height="255" rx="127.5" fill="#3F76FF"/>
<path d="M143.729 253.875C160.989 250.235 198.678 239.64 211.654 226.913C207.978 244.522 151.503 261.965 143.729 253.875Z" fill="#FFC100"/>
<ellipse cx="67.0837" cy="148.641" rx="18.1965" ry="21.8349" transform="rotate(-22.3491 67.0837 148.641)" fill="white"/>
<ellipse cx="63.1913" cy="144.874" rx="6.80982" ry="8.17147" transform="rotate(-22.3491 63.1913 144.874)" fill="#FFF1C6"/>
<path d="M183.21 121.061C184.815 133.013 193.946 141.65 203.604 140.353C206.294 139.991 219.789 128.315 218.184 116.363C216.578 104.411 207.447 95.7744 197.79 97.0717C188.132 98.3691 181.604 109.11 183.21 121.061Z" fill="#E5EDFF"/>
<ellipse cx="6.80983" cy="8.17147" rx="6.80983" ry="8.17147" transform="matrix(-0.991098 0.133137 0.133137 0.991098 208.393 104.425)" fill="#E9DEBD"/>
<g filter="url(#filter0_i_5394_32198)">
<path fill-rule="evenodd" clip-rule="evenodd" d="M121.17 103.205C128.816 98.2502 139.134 90.1655 147.312 79.6567C149.33 77.7379 153.962 75.3512 156.346 81.1549C158.367 86.0784 157.721 92.5119 155.068 98.7674C201.658 100.046 228.714 134.793 237.647 168.133C248.505 208.654 210.836 236.479 161.548 249.686C112.259 262.893 64.721 255.599 53.8635 215.079C43.0686 174.792 60.6378 118.214 121.17 103.205Z" fill="white"/>
</g>
<path d="M204.503 234.305C190.923 246.758 154.534 254.872 141.412 256.018C141.87 268.797 147.531 299.854 190.29 286.45C224.021 275.877 211.165 245.731 204.503 234.305Z" fill="#5BCBFB"/>
<path d="M187.886 249.843L190.105 243.087C179.491 247.957 162.488 252.217 155.973 253.656L160.847 256.408C161.198 256.607 161.61 256.666 162.003 256.576L186.711 250.914C187.263 250.788 187.709 250.381 187.886 249.843Z" fill="white"/>
<path d="M82.2337 245.439C99.1457 240.281 119.463 251.87 134.127 253.933L138.731 273.987C123.956 277.002 119.015 281.211 93.1843 277.987C62.9693 274.217 74.361 247.84 82.2337 245.439Z" fill="url(#paint0_linear_5394_32198)"/>
<path d="M85.5712 278.135C84.9828 276.449 90.6286 245.093 91.7763 243.459C92.8004 242.281 95.1459 242.88 95.4184 244.26C97.149 253.02 91.7763 277.494 90.1439 278.763C88.3994 280.119 86.0407 279.064 85.5712 278.135Z" fill="#FFC100"/>
<ellipse cx="139.824" cy="270.498" rx="26.0913" ry="34.5045" transform="rotate(-22.1969 139.824 270.498)" fill="white"/>
<ellipse cx="141.519" cy="272.963" rx="18.0558" ry="23.8779" transform="rotate(-22.1969 141.519 272.963)" fill="#D7E5FF"/>
<path d="M198.006 239.321L198.529 203.371L242.212 208.896L211.982 243.886C207.042 247.759 198.333 243.829 198.006 239.321Z" fill="url(#paint1_linear_5394_32198)"/>
<circle cx="225.43" cy="199.387" r="28.804" transform="rotate(-10.8 225.43 199.387)" fill="#FFC100"/>
<g filter="url(#filter1_i_5394_32198)">
<g clip-path="url(#clip1_5394_32198)">
<circle cx="232.517" cy="194.775" r="36.2273" transform="rotate(-10.8 232.517 194.775)" fill="white"/>
</g>
</g>
<path d="M116.449 199.274L116.347 199.31L116.38 199.412C119.571 209.421 125.776 216.319 133.693 219.769C141.608 223.219 151.223 223.215 161.226 219.446C169.798 216.216 173.734 209.073 175.121 201.311C176.508 193.551 175.354 185.157 173.735 179.384L173.704 179.271L173.593 179.31L116.449 199.274Z" fill="#F44D3D" stroke="#CDDEFF" stroke-width="0.220732"/>
<path fill-rule="evenodd" clip-rule="evenodd" d="M173.661 206.087C168.92 204.744 161.819 205.006 154.312 207.139C144.199 210.014 136.499 215.391 134.935 220.203C142.559 223.093 151.639 222.898 161.074 219.343C167.794 216.811 171.651 211.861 173.661 206.087Z" fill="#FC6D5C"/>
<path d="M158.392 184.732L128.49 194.987C131.267 196.327 138.987 198.125 147.649 194.603C156.31 191.08 158.548 186.623 158.392 184.732Z" fill="white"/>
<circle cx="103.783" cy="173.315" r="19.4437" transform="rotate(-18.9775 103.783 173.315)" fill="#1D1D1D"/>
<circle cx="161.595" cy="152.815" r="19.4437" transform="rotate(-18.9775 161.595 152.815)" fill="#1D1D1D"/>
<circle cx="106.939" cy="179.415" r="12.0651" fill="#3E3E3E"/>
<circle cx="163.567" cy="156.701" r="12.0651" fill="#3E3E3E"/>
<ellipse cx="171.561" cy="168.766" rx="21.6977" ry="7.80038" transform="rotate(-24.0519 171.561 168.766)" fill="white"/>
<ellipse cx="110.385" cy="192.419" rx="21.6977" ry="7.80038" transform="rotate(-20.4688 110.385 192.419)" fill="white"/>
<circle cx="109.4" cy="154.984" r="3.34072" fill="white"/>
<circle cx="165.487" cy="133.57" r="3.89111" fill="white"/>
<rect x="88.5322" y="147.529" width="13.6492" height="50.7871" transform="rotate(5.18885 88.5322 147.529)" fill="#B8D4FF" fill-opacity="0.3"/>
<rect x="175.878" y="124.076" width="9.15228" height="49.5762" transform="rotate(5.18885 175.878 124.076)" fill="#B8D4FF" fill-opacity="0.3"/>
<g filter="url(#filter2_i_5394_32198)">
<line x1="124.914" y1="163.671" x2="139.96" y2="157.077" stroke="#1D48B5" stroke-width="2.64879"/>
</g>
<g filter="url(#filter3_di_5394_32198)">
<circle cx="166.604" cy="147.282" r="29.0346" transform="rotate(-28.3952 166.604 147.282)" stroke="#1A44AE" stroke-width="2.64879" shape-rendering="crispEdges"/>
</g>
<g filter="url(#filter4_di_5394_32198)">
<circle cx="99.5105" cy="173.43" r="28.1943" transform="rotate(-28.3952 99.5105 173.43)" stroke="#1A44AE" stroke-width="2.64879" shape-rendering="crispEdges"/>
</g>
<path d="M73.5655 64.4543C73.8925 63.5954 75.1075 63.5954 75.4345 64.4543L79.4422 74.9791C79.5437 75.2457 79.7543 75.4563 80.0209 75.5578L90.5457 79.5655C91.4046 79.8925 91.4046 81.1075 90.5457 81.4345L80.0209 85.4422C79.7543 85.5437 79.5437 85.7543 79.4422 86.0209L75.4345 96.5457C75.1075 97.4046 73.8925 97.4046 73.5655 96.5457L69.5578 86.0209C69.4563 85.7543 69.2457 85.5437 68.9791 85.4422L58.4543 81.4345C57.5954 81.1075 57.5954 79.8925 58.4543 79.5655L68.9791 75.5578C69.2457 75.4563 69.4563 75.2457 69.5578 74.9791L73.5655 64.4543Z" fill="white"/>
<path d="M100.599 40.0518C100.74 39.6838 101.26 39.6838 101.401 40.0518L102.586 43.1658C102.63 43.28 102.72 43.3703 102.834 43.4138L105.948 44.5995C106.316 44.7396 106.316 45.2604 105.948 45.4005L102.834 46.5862C102.72 46.6297 102.63 46.72 102.586 46.8342L101.401 49.9482C101.26 50.3162 100.74 50.3162 100.599 49.9482L99.4138 46.8342C99.3703 46.72 99.28 46.6297 99.1658 46.5862L96.0518 45.4005C95.6838 45.2604 95.6838 44.7396 96.0518 44.5995L99.1658 43.4138C99.28 43.3703 99.3703 43.28 99.4138 43.1658L100.599 40.0518Z" fill="white"/>
<path d="M187.099 76.0518C187.24 75.6838 187.76 75.6838 187.901 76.0518L188.948 78.8036C188.992 78.9179 189.082 79.0081 189.196 79.0516L191.948 80.0995C192.316 80.2396 192.316 80.7604 191.948 80.9005L189.196 81.9484C189.082 81.9919 188.992 82.0821 188.948 82.1964L187.901 84.9482C187.76 85.3162 187.24 85.3162 187.099 84.9482L186.052 82.1964C186.008 82.0821 185.918 81.9919 185.804 81.9484L183.052 80.9005C182.684 80.7604 182.684 80.2396 183.052 80.0995L185.804 79.0516C185.918 79.0081 186.008 78.9179 186.052 78.8036L187.099 76.0518Z" fill="white"/>
</g>
<defs>
<filter id="filter0_i_5394_32198" x="45.5785" y="72.2024" width="193.946" height="183.493" filterUnits="userSpaceOnUse" color-interpolation-filters="sRGB">
<feFlood flood-opacity="0" result="BackgroundImageFix"/>
<feBlend mode="normal" in="SourceGraphic" in2="BackgroundImageFix" result="shape"/>
<feColorMatrix in="SourceAlpha" type="matrix" values="0 0 0 0 0 0 0 0 0 0 0 0 0 0 0 0 0 0 127 0" result="hardAlpha"/>
<feOffset dx="-5.29757" dy="-5.29757"/>
<feGaussianBlur stdDeviation="4.41464"/>
<feComposite in2="hardAlpha" operator="arithmetic" k2="-1" k3="1"/>
<feColorMatrix type="matrix" values="0 0 0 0 0.803271 0 0 0 0 0.868847 0 0 0 0 1 0 0 0 1 0"/>
<feBlend mode="normal" in2="shape" result="effect1_innerShadow_5394_32198"/>
</filter>
<filter id="filter1_i_5394_32198" x="187.999" y="151.001" width="77.7668" height="79.5327" filterUnits="userSpaceOnUse" color-interpolation-filters="sRGB">
<feFlood flood-opacity="0" result="BackgroundImageFix"/>
<feBlend mode="normal" in="SourceGraphic" in2="BackgroundImageFix" result="shape"/>
<feColorMatrix in="SourceAlpha" type="matrix" values="0 0 0 0 0 0 0 0 0 0 0 0 0 0 0 0 0 0 127 0" result="hardAlpha"/>
<feOffset dx="1.76586" dy="-3.53171"/>
<feGaussianBlur stdDeviation="2.64879"/>
<feComposite in2="hardAlpha" operator="arithmetic" k2="-1" k3="1"/>
<feColorMatrix type="matrix" values="0 0 0 0 0.829948 0 0 0 0 0.888252 0 0 0 0 1 0 0 0 1 0"/>
<feBlend mode="normal" in2="shape" result="effect1_innerShadow_5394_32198"/>
</filter>
<filter id="filter2_i_5394_32198" x="124.383" y="155.864" width="16.1088" height="9.90246" filterUnits="userSpaceOnUse" color-interpolation-filters="sRGB">
<feFlood flood-opacity="0" result="BackgroundImageFix"/>
<feBlend mode="normal" in="SourceGraphic" in2="BackgroundImageFix" result="shape"/>
<feColorMatrix in="SourceAlpha" type="matrix" values="0 0 0 0 0 0 0 0 0 0 0 0 0 0 0 0 0 0 127 0" result="hardAlpha"/>
<feOffset dy="0.882929"/>
<feGaussianBlur stdDeviation="0.441464"/>
<feComposite in2="hardAlpha" operator="arithmetic" k2="-1" k3="1"/>
<feColorMatrix type="matrix" values="0 0 0 0 0.133333 0 0 0 0 0.309804 0 0 0 0 0.74902 0 0 0 1 0"/>
<feBlend mode="normal" in2="shape" result="effect1_innerShadow_5394_32198"/>
</filter>
<filter id="filter3_di_5394_32198" x="135.357" y="115.151" width="67.7932" height="67.7929" filterUnits="userSpaceOnUse" color-interpolation-filters="sRGB">
<feFlood flood-opacity="0" result="BackgroundImageFix"/>
<feColorMatrix in="SourceAlpha" type="matrix" values="0 0 0 0 0 0 0 0 0 0 0 0 0 0 0 0 0 0 127 0" result="hardAlpha"/>
<feOffset dx="2.64879" dy="1.76586"/>
<feGaussianBlur stdDeviation="1.76586"/>
<feComposite in2="hardAlpha" operator="out"/>
<feColorMatrix type="matrix" values="0 0 0 0 0 0 0 0 0 0 0 0 0 0 0 0 0 0 0.15 0"/>
<feBlend mode="normal" in2="BackgroundImageFix" result="effect1_dropShadow_5394_32198"/>
<feBlend mode="normal" in="SourceGraphic" in2="effect1_dropShadow_5394_32198" result="shape"/>
<feColorMatrix in="SourceAlpha" type="matrix" values="0 0 0 0 0 0 0 0 0 0 0 0 0 0 0 0 0 0 127 0" result="hardAlpha"/>
<feOffset dy="1.76586"/>
<feGaussianBlur stdDeviation="0.882929"/>
<feComposite in2="hardAlpha" operator="arithmetic" k2="-1" k3="1"/>
<feColorMatrix type="matrix" values="0 0 0 0 0.244065 0 0 0 0 0.451742 0 0 0 0 0.975879 0 0 0 1 0"/>
<feBlend mode="normal" in2="shape" result="effect2_innerShadow_5394_32198"/>
</filter>
<filter id="filter4_di_5394_32198" x="69.1032" y="142.139" width="66.1123" height="66.1123" filterUnits="userSpaceOnUse" color-interpolation-filters="sRGB">
<feFlood flood-opacity="0" result="BackgroundImageFix"/>
<feColorMatrix in="SourceAlpha" type="matrix" values="0 0 0 0 0 0 0 0 0 0 0 0 0 0 0 0 0 0 127 0" result="hardAlpha"/>
<feOffset dx="2.64879" dy="1.76586"/>
<feGaussianBlur stdDeviation="1.76586"/>
<feComposite in2="hardAlpha" operator="out"/>
<feColorMatrix type="matrix" values="0 0 0 0 0 0 0 0 0 0 0 0 0 0 0 0 0 0 0.15 0"/>
<feBlend mode="normal" in2="BackgroundImageFix" result="effect1_dropShadow_5394_32198"/>
<feBlend mode="normal" in="SourceGraphic" in2="effect1_dropShadow_5394_32198" result="shape"/>
<feColorMatrix in="SourceAlpha" type="matrix" values="0 0 0 0 0 0 0 0 0 0 0 0 0 0 0 0 0 0 127 0" result="hardAlpha"/>
<feOffset dy="1.76586"/>
<feGaussianBlur stdDeviation="0.882929"/>
<feComposite in2="hardAlpha" operator="arithmetic" k2="-1" k3="1"/>
<feColorMatrix type="matrix" values="0 0 0 0 0.244065 0 0 0 0 0.451742 0 0 0 0 0.975879 0 0 0 1 0"/>
<feBlend mode="normal" in2="shape" result="effect2_innerShadow_5394_32198"/>
</filter>
<linearGradient id="paint0_linear_5394_32198" x1="102.36" y1="252.498" x2="109.272" y2="280.555" gradientUnits="userSpaceOnUse">
<stop stop-color="white"/>
<stop stop-color="white"/>
<stop offset="1" stop-color="#DBE7FF"/>
</linearGradient>
<linearGradient id="paint1_linear_5394_32198" x1="215.522" y1="200.13" x2="203.243" y2="244.547" gradientUnits="userSpaceOnUse">
<stop stop-color="#F3F7FF"/>
<stop offset="0.978213" stop-color="#D5E3FF"/>
</linearGradient>
<clipPath id="clip0_5394_32198">
<rect width="255" height="255" rx="127.5" fill="white"/>
</clipPath>
<clipPath id="clip1_5394_32198">
<rect x="187.999" y="166.709" width="64.9765" height="64.9765" rx="32.4883" transform="rotate(-10.8 187.999 166.709)" fill="white"/>
</clipPath>
</defs>
</svg>
