<svg width="17" height="18" viewBox="0 0 17 18" fill="none" xmlns="http://www.w3.org/2000/svg">
<path d="M6.91312 0.938683C7.00219 0.468038 7.62888 0.362583 7.85906 0.779508L9.62185 3.97239C10.3387 5.27088 11.5881 6.18571 13.0423 6.47696L16.544 7.17829C17.0023 7.27007 17.0997 7.8823 16.6937 8.11951L13.5916 9.93207C12.3034 10.6848 11.4025 11.9614 11.1251 13.4272L10.443 17.0315C10.354 17.5022 9.72729 17.6076 9.4971 17.1907L7.73431 13.9978C7.01742 12.6993 5.76805 11.7845 4.31386 11.4932L0.81214 10.7919C0.353853 10.7001 0.256514 10.0879 0.662492 9.85069L3.76452 8.03813C5.05273 7.28542 5.95366 6.00877 6.23105 4.54296L6.91312 0.938683Z" fill="#3F76FF"/>
</svg>
